<?xml version="1.0" encoding="UTF-8"?>
<svg xmlns="http://www.w3.org/2000/svg" version="1.1" viewBox="0 0 456.8 456.6">
  <defs>
    <style>
      .cls-1 {
        fill: #fff;
      }

      .cls-2, .cls-3 {
        opacity: .3;
      }

      .cls-3 {
        fill: #0d71ba;
      }
    </style>
  </defs>
  <!-- Generator: Adobe Illustrator 28.6.0, SVG Export Plug-In . SVG Version: 1.2.0 Build 709)  -->
  <g>
    <g id="Layer_1">
      <g>
        <rect class="cls-1" width="73.3" height="73.3" rx="7.5" ry="7.5"/>
        <rect class="cls-1" x="95.9" width="73.3" height="73.3" rx="7.5" ry="7.5"/>
        <rect class="cls-1" x="132.5" width="73.3" height="73.3" rx="7.5" ry="7.5"/>
        <rect class="cls-1" x="287.8" width="73.3" height="73.3" rx="7.5" ry="7.5"/>
        <rect class="cls-1" x="383.5" width="73.3" height="73.3" rx="7.5" ry="7.5"/>
        <rect class="cls-1" y="96.6" width="73.3" height="73.3" rx="7.5" ry="7.5"/>
        <rect class="cls-1" x="96.1" y="96.6" width="73.3" height="73.3" rx="7.5" ry="7.5"/>
        <rect class="cls-1" x="192.1" y="96.6" width="73.3" height="73.3" rx="7.5" ry="7.5"/>
        <rect class="cls-1" x="383.5" y="95.4" width="73.3" height="73.3" rx="7.5" ry="7.5"/>
        <rect class="cls-1" x="95.9" y="192.1" width="73.3" height="73.3" rx="7.5" ry="7.5"/>
        <rect class="cls-1" x="59.3" y="192.1" width="73.3" height="73.3" rx="7.5" ry="7.5"/>
        <rect class="cls-1" x="192.1" y="192.1" width="73.3" height="73.3" rx="7.5" ry="7.5"/>
        <rect class="cls-1" x="287.8" y="155.5" width="73.3" height="73.3" rx="7.5" ry="7.5"/>
        <rect class="cls-1" x="287.8" y="192.1" width="73.3" height="73.3" rx="7.5" ry="7.5"/>
        <rect class="cls-1" y="287.7" width="73.3" height="73.3" rx="7.5" ry="7.5"/>
        <rect class="cls-1" x="95.9" y="287.7" width="73.3" height="73.3" rx="7.5" ry="7.5"/>
        <rect class="cls-1" x="287.8" y="287.7" width="73.3" height="73.3" rx="7.5" ry="7.5"/>
        <rect class="cls-1" x="383.5" y="251.1" width="73.3" height="73.3" rx="7.5" ry="7.5"/>
        <rect class="cls-1" x="383.5" y="287.7" width="73.3" height="73.3" rx="7.5" ry="7.5"/>
        <rect class="cls-1" y="383.3" width="73.3" height="73.3" rx="7.5" ry="7.5"/>
        <rect class="cls-1" x="36.6" y="383.3" width="73.3" height="73.3" rx="7.5" ry="7.5"/>
        <rect class="cls-1" x="192.1" y="346.6" width="73.3" height="73.3" rx="7.5" ry="7.5"/>
        <rect class="cls-1" x="192.1" y="383.3" width="73.3" height="73.3" rx="7.5" ry="7.5"/>
        <rect class="cls-1" x="287.8" y="383.3" width="73.3" height="73.3" rx="7.5" ry="7.5"/>
        <rect class="cls-1" x="383.5" y="383.3" width="73.3" height="73.3" rx="7.5" ry="7.5"/>
      </g>
      <rect class="cls-2" width="73.3" height="73.3" rx="7.5" ry="7.5"/>
      <rect class="cls-2" x="95.9" width="73.3" height="73.3" rx="7.5" ry="7.5"/>
      <rect class="cls-3" x="132.5" width="73.3" height="73.3" rx="7.5" ry="7.5"/>
      <rect class="cls-2" x="287.8" width="73.3" height="73.3" rx="7.5" ry="7.5"/>
      <rect class="cls-3" x="383.5" width="73.3" height="73.3" rx="7.5" ry="7.5"/>
      <rect class="cls-3" y="96.6" width="73.3" height="73.3" rx="7.5" ry="7.5"/>
      <rect class="cls-2" x="96.1" y="96.6" width="73.3" height="73.3" rx="7.5" ry="7.5"/>
      <rect class="cls-2" x="192.1" y="96.6" width="73.3" height="73.3" rx="7.5" ry="7.5"/>
      <rect class="cls-2" x="383.5" y="95.4" width="73.3" height="73.3" rx="7.5" ry="7.5"/>
      <rect class="cls-2" x="95.9" y="192.1" width="73.3" height="73.3" rx="7.5" ry="7.5"/>
      <rect class="cls-3" x="59.3" y="192.1" width="73.3" height="73.3" rx="7.5" ry="7.5"/>
      <rect class="cls-2" x="192.1" y="192.1" width="73.3" height="73.3" rx="7.5" ry="7.5"/>
      <rect class="cls-3" x="287.8" y="155.5" width="73.3" height="73.3" rx="7.5" ry="7.5"/>
      <rect class="cls-2" x="287.8" y="192.1" width="73.3" height="73.3" rx="7.5" ry="7.5"/>
      <rect class="cls-2" x="0" y="287.7" width="73.3" height="73.3" rx="7.5" ry="7.5"/>
      <rect class="cls-3" x="95.9" y="287.7" width="73.3" height="73.3" rx="7.5" ry="7.5"/>
      <rect class="cls-2" x="287.8" y="287.7" width="73.3" height="73.3" rx="7.5" ry="7.5"/>
      <rect class="cls-3" x="383.5" y="251.1" width="73.3" height="73.3" rx="7.5" ry="7.5"/>
      <rect class="cls-2" x="383.5" y="287.7" width="73.3" height="73.3" rx="7.5" ry="7.5"/>
      <rect class="cls-2" x="0" y="383.3" width="73.3" height="73.3" rx="7.5" ry="7.5"/>
      <rect class="cls-3" x="36.6" y="383.3" width="73.3" height="73.3" rx="7.5" ry="7.5"/>
      <rect class="cls-3" x="192.1" y="346.6" width="73.3" height="73.3" rx="7.5" ry="7.5"/>
      <rect class="cls-2" x="192.1" y="383.3" width="73.3" height="73.3" rx="7.5" ry="7.5"/>
      <rect class="cls-2" x="287.8" y="383.3" width="73.3" height="73.3" rx="7.5" ry="7.5"/>
      <rect class="cls-2" x="383.5" y="383.3" width="73.3" height="73.3" rx="7.5" ry="7.5"/>
    </g>
    <metadata>
      <sfw xmlns="http://ns.adobe.com/SaveForWeb/1.0/">
        <slices/>
        <sliceSourceBounds x="75.54" y="-471.8" width="456.76" height="456.56" bottomLeftOrigin="true"/>
      </sfw>
    </metadata>
  </g>
</svg>