<?xml version="1.0" encoding="UTF-8"?>
<svg xmlns="http://www.w3.org/2000/svg" version="1.1" viewBox="0 0 74.1 76.1">
  <defs>
    <style>
      .cls-1 {
        fill: #00a1ed;
      }

      .cls-2 {
        fill: #fff;
      }

      .cls-3 {
        fill: silver;
      }

      .cls-4 {
        fill: #edeeef;
      }

      .cls-5 {
        fill: #ae0721;
      }
    </style>
  </defs>
  <!-- Generator: Adobe Illustrator 28.6.0, SVG Export Plug-In . SVG Version: 1.2.0 Build 709)  -->
  <g>
    <g id="Layer_1">
      <path class="cls-3" d="M29.9,50.6h0c0,0,14.4,0,14.4,0l7.2-12.3h-14.4l-7.2,12.4Z"/>
      <path class="cls-1" d="M44.7,51.3h-14.9v-.6l-.8-.4.2-.6h.1l7.2-12.3h15.3l.4.8-.2.4-7.4,12.7ZM31.2,49.8h12.6l6.3-10.8h-12.6l-6.3,10.8Z"/>
      <path class="cls-4" d="M29.8,25.6h0l7.3,12.5h14.4s0-.1,0-.1l-7.2-12.4h-14.5Z"/>
      <path class="cls-2" d="M36.6,38.9l-8.7-15,2,.9h14.7l7.7,13.2-.5.9h-15.2ZM31.1,26.4l6.4,11h12.7s-6.4-11-6.4-11h-12.7Z"/>
      <path class="cls-5" d="M29.8,25.6l-7.2,12.4,7.3,12.5,7.2-12.4-7.3-12.5Z"/>
      <path class="cls-2" d="M29.8,52.2l-.6-1.3-7.5-12.9,8.1-14,8.2,14.1-8.2,14ZM23.5,38.1l6.4,11,6.3-10.9-6.4-11-6.3,10.9Z"/>
      <path class="cls-2" d="M24,63.7h13.6l6.8-11.6,6.3,10.9-6.8,11.6h-13.6l-6.3-10.9ZM30.3,51.3h12.7l-6.3,10.9h-12.7l6.3-10.9ZM16.3,50.5l6.3-10.9,6.3,10.9-6.3,10.8-6.3-10.9ZM45.7,51.3h13.6l6.8-11.7,6.3,10.9-6.8,11.7h-13.5l-6.3-10.9ZM1.8,50.5l6.8-11.7h12.7l-6.8,11.7,6.8,11.7h-12.7l-6.8-11.7ZM52,38.8h12.7l-6.3,10.9h-12.7l6.3-10.9ZM23.5,38l6.8-11.6h13.6l6.8,11.7-6.3,10.8-6.5-11.2h0s0,0,0,0l-1.3.8,6.6,11.3h-12.7l-6.8-11.7ZM45.6,26.4h12.7l6.4,10.9h-12.7l-6.4-10.9ZM16.2,25.6l6.3-10.9,6.3,10.9-6.3,10.9-6.3-10.9ZM1.8,25.6l6.8-11.7h12.7l-6.8,11.7,6.8,11.7h-12.7L1.8,25.6ZM23.9,14h12.7l6.3,10.9h-12.7l-6.3-10.9ZM52,14h13.6l6.8,11.7-6.3,10.9-6.8-11.7h-13.6l6.3-10.9ZM30.2,1.5h13.6l6.8,11.7-6.3,10.9-6.8-11.7h-13.6L30.2,1.5ZM29.4,0l-7.2,12.4H7.7L0,25.6l7.3,12.5L0,50.5l7.7,13.2h14.5l7.2,12.4h15.3l7.2-12.4h14.4l7.7-13.2-7.2-12.4h0s0,0,0,0l7.2-12.4-7.7-13.2h-14.5L44.7,0h-15.3Z"/>
    </g>
    <metadata>
      <sfw xmlns="http://ns.adobe.com/SaveForWeb/1.0/">
        <slices/>
        <sliceSourceBounds x="0" y="0" width="74.1" height="76.13" bottomLeftOrigin="true"/>
      </sfw>
    </metadata>
  </g>
</svg>