<?xml version="1.0" encoding="UTF-8"?>
<svg xmlns="http://www.w3.org/2000/svg" version="1.1" viewBox="0 0 407 336.7">
  <defs>
    <style>
      .cls-1 {
        fill: gray;
      }
    </style>
  </defs>
  <!-- Generator: Adobe Illustrator 28.6.0, SVG Export Plug-In . SVG Version: 1.2.0 Build 709)  -->
  <g>
    <g id="Layer_1">
      <path class="cls-1" d="M81.8,140c-7.3-2.1-11.4,7.7-5.4,11.6,8.1,3.6,15.2-9.8,5.1-11.6"/>
      <path class="cls-1" d="M343.7,262.6c-15.5,93.2-183.8,82.8-249.5,53.5-47.9-20.7-25.1-53-50.4-59.6-3.1-.9-2.9-5.7-1.3-7.9,9.4-17.7,23.5,5.9,34.8,9.9,2.3,2.4,4-2,5.6-3.2,8.8-6.1,12.7,3.1,17.1,8.1,8.9,6.1,23.1,17.4,30.2,3.7,7.6-2.6,11.5,0,15.7,6.4,3.8.2,4.8,5.8,9.1,4.9,8.4-1.6,17-1.8,25.5-.4,5.3-2.7-5.2-13.7,9.9-14.5,23.3,9.5-17.6,19.7,36.2,17,2.4-.1,1.6-3.3,1.9-5,1.9-8.9,16.4-10.6,18.3-.8,4.3,6.3,12.1-4.6,18.4-1.4,24.8,3.1,17.1-8.8,27.7-13.4,4.1-1.3,7.6,1.4,10.3,3.9,5-1,10.1-2.1,15.2-1.9,4.1-4.1,15.1-15.8,19.6-7,.8-7.6,3.5-18.7,13.5-15,1.8,2,4.8,2.3,6.9.5,0,0,0,0,0,0,11.9-9.7,10-18.7,26.3-24.2l-14.5-1.5c3.8-8.1,14-8.2,18.2-15.7-6.7.2-10.7,3.5-14.8,8.7-1.1,2.6-6,4-3.8,7.2"/>
      <path class="cls-1" d="M343.7,262.6c9.4-4.1,34.2-3.8,23-19.7,16.4-6.7,5.7-11.1,26.6-12.5,12.2-4-1-21.2-9-12.3l-.3-.5v.5c1.5-19,28.3-2.8,22.1-24.4-2.5-2.6-6.8-2.8-10.2-2.4.7-3.6-.8-9-5-9.1-12.6-1.4-15.4,17.8-29.7,22.8-8.5-12.5-2.7-11.5,4.1-21.9.7-11.2,4.9-9.2,14-11.8,9.6-8.9-7.5-20.8-12.1-8.2h0c.5,13.4-18.5,12.3-22.6,24.6-5.4-9.4-10.9-17.1-22.3-15.8-2.4-11.9,10.5-16.1,15.1-24.5,1.9-9.9-11.4-13.9-16.4-5.5-6.6,21.5-8.2,30-32.6,22.1-8.5-2.2-27.3,7.1-25.3-8.2-1-11.2,1.5-11.9,8.2-18.6,2-7-5.7-12.8-11.4-7.7-1.4,10-.4,27-13.1,30.4-15.2-1.6-34,7.5-31.8-16.4,11.1-8.2,2.1-25-8.1-12.6-1.4,3.3-.2,7.7,2.1,10.3-.1,9.4-4.6,19.9-15.7,17.1-13.9,2.6-18-5.6-21.7-17.2,0-6,7.7-11.7.7-16.8-21.2-5.9,1,23-10.4,30.9-6.5,1.2-13.7-.9-20.1,1.5-11.3,13.5-18.5.7-28-7.3-2-4.9,1.8-13.4-5.2-15.4-13.2-2.3-8.3,14.1,1,15.8,7.6,10.6,15.3,32.8-6.4,28.9-5.7-3.2-9.4-26.3-16.6-14.2-.5,6.5,8.7,11.8,4.6,17.6-3.6,4.1-11.6,5.4-14.8.3-8.4-7.2-10.4-15.3-11.9-25.6-4.5-6.7-15.2-.4-11.5,6.8,1.5,5,6.9,6.1,9.3,9.8,10.5,20.2-13.9,6.6-19.5,20.4-5.4,2-8.6-9.6-14.2-11-4.1-2.8-9.9-6.6-9.7-12.1-.9-12-20.3-10.1-14.7,2.5,15.9,8.1,13.8,4.8,23.4,23,9.8,10.8-2.7,7.6.1,20.9-8.5-1.1-10.3-9.1-15.6-14.2-7.1-4-14.3,3.5-11.1,10.8,5.5,6.7,16.9.8,21,11.1-7.4-.3-8.5,11.4-2.7,14.7,4.5,2.6,10.7-.7,14.4,3,10.3,12,28.8,22.7,42.2,8.9l-1.8,1.8c54.9-41.3,188.6-48.7,242.5,4.7,6.8,7.5,18.5,12,27.3,4.6"/>
      <path class="cls-1" d="M228,11c.2,14.7-22.9,14.7-22.7,0-.2-14.7,22.9-14.7,22.7,0Z"/>
    </g>
    <metadata>
      <sfw xmlns="http://ns.adobe.com/SaveForWeb/1.0/">
        <slices/>
        <sliceSourceBounds x="11.76" y="4.4" width="407.05" height="336.73" bottomLeftOrigin="true"/>
      </sfw>
    </metadata>
  </g>
</svg>