<?xml version="1.0" encoding="UTF-8"?>
<svg xmlns="http://www.w3.org/2000/svg" version="1.1" viewBox="0 0 98.5 67.6">
  <defs>
    <style>
      .cls-1 {
        fill: #fff;
      }

      .cls-2 {
        fill: #a90533;
      }

      .cls-2, .cls-3 {
        fill-rule: evenodd;
      }

      .cls-3 {
        fill: #a41f36;
      }
    </style>
  </defs>
  <!-- Generator: Adobe Illustrator 28.6.0, SVG Export Plug-In . SVG Version: 1.2.0 Build 709)  -->
  <g>
    <g id="Layer_1">
      <rect class="cls-1" width="98.3" height="67.6"/>
      <g>
        <path class="cls-2" d="M86,0v23.3h-1.6v-4.4h-8.8v27.2h4.4v1.7h-13.9v-1.7h4.9v-27.2h-9.1v11.6h-2.1v-.8c0-1-.4-2.6-1.3-3.3-2.3-2.1-6.1-2.1-7.9.1-1.9,2.3-1.4,6.1,1.8,8.3,2.5,1.7,5,3.1,7.5,4.8,3.8,2.7,4.9,5.9,3.7,9.5-1.4,3.9-4.3,5.9-8.8,6.1-3,0-6.1-1.1-8.2-2.4v14.8h51.9V0h-12.5Z"/>
        <path class="cls-3" d="M23.3,17.4v1.5h-3.2v12.1h17.2v-12.1h-3.3v-1.5h10.8v1.5h-3.2v27.9h5.3c1.1,4.3,3.8,5.6,7.6,5.4,2.6,0,5-1.4,5.4-4.1.4-2.7-1.4-4.7-3.5-6.1-2.6-1.6-5.3-3.1-7.9-4.8-5.1-3.5-4.9-10.7.5-13.3,2.2-1.1,3.1-1.2,5.7-1.3,1.3-.1,3.7.5,5,.8v-6h0c0-.1,24.6-.1,24.6-.1V0H0v17.4h23.3Z"/>
        <polygon class="cls-2" points="44.8 48.3 34 48.3 34 46.8 37.3 46.8 37.3 34.2 20.1 34.2 20.1 46.8 23.5 46.8 23.5 48.3 12.7 48.3 12.7 46.8 15.4 46.8 15.4 18.9 0 18.9 0 67.6 44.8 67.6 44.8 48.3"/>
      </g>
    </g>
    <metadata>
      <sfw xmlns="http://ns.adobe.com/SaveForWeb/1.0/">
        <slices/>
        <sliceSourceBounds x="0" y="0" width="98.5" height="67.6" bottomLeftOrigin="true"/>
      </sfw>
    </metadata>
  </g>
</svg>