<?xml version="1.0" encoding="utf-8"?>
<!--
	COPYRIGHT WARNING!
	This file is copyright (C) 2023 Massachusetts Institute of Technology. All Rights Reserved.
	Used with permission under the MIT Brand Guidelines (https://brand.mit.edu/).
 -->
<!DOCTYPE svg PUBLIC "-//W3C//DTD SVG 1.1//EN" "http://www.w3.org/Graphics/SVG/1.1/DTD/svg11.dtd">
<svg version="1.1" id="Layer_1" xmlns="http://www.w3.org/2000/svg" xmlns:xlink="http://www.w3.org/1999/xlink" x="0px" y="0px" viewBox="0 0 726.1634 512.5346" style="enable-background:new 0 0 726.1634 512.5346;" xml:space="preserve">
<style type="text/css">
	.st0{fill:#FFFFFF;}
	.st1{fill:#785032;}
	.st2{fill:#EBD7BD;}
	.st3{fill:none;}
	.st4{fill:#750014;}
	.st5{fill:#A6A6A6;}
	.st6{fill:#DDDDDD;}
	.st7{fill:#FFB0BE;}
	.st8{fill:#FF5472;}
	.st9{fill:#FFF8E8;}
	.st10{fill:#FAAA35;}
</style>
<g>
	<g>
		<path class="st0" d="M273.8255,324.2552c-0.0459,0.0127-0.0908,0.0244-0.1357,0.0371c0.3037,0.0303,0.6035,0.0557,0.8916,0.0742
			L273.8255,324.2552z"/>
		<path class="st0" d="M277.7182,191.5521c-11.2949-10.1143-26.084-17.791-39.9326-23.3955l-6.9043-2.1504l-9.1494-3.6592
			l-34.6074,13.1787l-10.1426,4.5869l-60.502-6.7265c-8.2216,6.9091-18.6767,17.4316-24.2011,25.9902
			c-0.1485,0.2275-0.7178,1.1934-0.7178,1.1934l2.6455,1.4092c0,0-0.2109,0.2715-0.4355,0.5723l0.4316,0.0273
			c2.9258,0.4102,11.1055,3.2744,15.7246,9.2549l-0.0596,0.5078c-6.9814,23.1475-16.3525,63.961-9.0703,98.9102
			c1.1612,5.5644,2.2529,13.7871,2.2529,13.7871l3.4209,1.5107c15.3155,5.8106,82.2637,21.6143,167.2188-2.2568
			c-3.6895-0.3613-8.4736-1.6348-12.8955-5.2598c-7.4961-6.1484-7.2188-14.0703-5.7715-19.4677l-0.3379-1.085
			c-6.8428-26.6435,6.0654-48.7461,9.7266-54.2949l0.0488-0.249c-2.5283-1.9239-5.0244-4.0293-7.4463-6.2295l0.1631-0.7481
			c19.04-10.6552,28.2559-28.3262,30.6533-33.5361l0.2881,0.1074l1.2149-2.4688
			C289.3333,201.0609,281.4153,194.8665,277.7182,191.5521z"/>
	</g>
	<path class="st1" d="M151.8686,185.8831c2.8574,3.6846,6.625,7.0948,10.2598,5.9844c4.4707-1.3662,9.168-6.8916,12.1172-10.9365
		L151.8686,185.8831z"/>
	<g>
		<path class="st1" d="M371.0189,229.6302c-14.2002-13.0732-36.8125-10.2148-46.8379-6.4648
			c-6.8711,2.3144-13.9726,5.8906-19.6719,9.0996c0.0118-0.4688,0.0118-0.7403,0.0118-0.7403s-2.5684-11.3486-14.7061-26.4238
			c-0.2451-0.3027-1.2139-1.1504-1.5693-1.458l-0.5039-0.0215c-2.5352,5.4463-11.7579,22.8135-30.5645,33.3369l-0.3965,0.5313
			c2.4453,2.2334,4.9688,4.376,7.5274,6.3291l0.2714,0.1133c-3.2431,4.8457-15.5253,25.3076-10.7685,50.5605l0.4746,16.1943
			l1.1465,1.2295c0.9932,2.4678,2.6689,4.9073,5.3623,7.1162c1.1465,0.9415,2.3184,1.7207,3.4883,2.3702l3.3008,3.538
			l-14.3125,3.2403l-0.0118,1.1914c-70.2363,15.2168-125.1738,4.1728-143.5078-1.6895l-0.4883,0.3946l1.8594,3.2168
			c3.3945,11.164,9.2539,19.3349,16.4512,25.2685l0.123,0.7979c1.6485,10.6963,9.2676,52.8955,30.4151,80.6113l-0.2881-0.126
			c-8.3447-4.2265-29.3145-13.0742-50.1113-7.748c-50.6524,12.9638-31.2432,42.1562-24.4102,50.4892l0.9531,1.128
			c6.211,13.0449,30.9258,10.8183,30.9258,10.8183l0.6602,0.334c13.9785,9.9678,35.956-7.7881,35.956-7.7881l0.6826-0.4951
			c11.3623-1.166,38.5118-4.7705,46.8829-13.1875l37.496,17.9102c0,0,12.8125,11.1377,22.4786,16.1171
			c13.9961,7.2081,29.1464,5.8965,34.1367-6.5371c0.2929-0.7304,0.541-1.4472,0.7412-2.1504l1.3623-0.5507
			c4.707-1.2198,10.6914-3.5938,14.1035-8.1094l0.7168-0.9082c0,0,16.3154-22.7656-3.5908-38.5947
			c-18.3233-14.5694-56.9893-5.2481-63.0313-3.67l-0.8359-0.0088c13.8164-21.5156,20.7178-45.6943,24.0664-66.6376
			c17.7471-8.7295,46.1768-24.7754,66.6504-40.5215C358.0267,318.9915,402.4037,258.5228,371.0189,229.6302z"/>
		<path class="st1" d="M99.182,258.3978c0,0,1.9834-7.1631,3.0693-14.8731c1.0869-7.7109,6.5137-26.8232,6.5137-26.8232
			l0.5459-7.0566l-11.1846-5.3203l-5.2168-0.4365c-1.1797,1.9756-2.4277,3.8115-3.414,5.8994l-0.4766,0.3681
			c-8.2451-5.6855-17.6719-8.6709-23.5098-10.0967l-0.1484-0.5254c8.8398-12.5888,4.7246-23.041,4.7246-23.041
			s13.1084-22.0684-0.4092-23.7246c-6.3955-0.7832-9.5986,2.9238-11.1943,7.0498l-0.3594-0.7324c0,0-4.7734-21.6406-12.3555-21.0371
			c-5.3496,0.4287-6.2714,7.6933-5.2675,13.5732c1.0088,5.8731,2.331,17.7754,2.331,17.7754s-11.456-22.376-21.081-17.2051
			c-8.1455,4.3828,0.709,14.8037,0.709,14.8037l4.5332,13.3848l-0.0889,0.2236c-3.5156-2.2373-18.2754-11.1904-22.2031-6.6386
			c-6.1709,7.1474,3.997,14.0507,3.997,14.0507l11.5371,9.4932c0,0,2.3086,18.291,19.6788,22.9971l0.6084,0.1719
			c3.831,10.1113,11.9296,25.8935,26.7988,33.2226C82.6528,261.4525,93.6284,260.0999,99.182,258.3978z"/>
		<path class="st1" d="M99.0863,50.7376c-9.0186,21.1211-10.458,41.2442-10.458,41.2442l0.3691,0.872
			c4.1094-0.5039,7.0684-0.1904,9.0274,0.2618l0.7851-0.5069c6.4326-0.5517,15.8516-0.7988,28.6475,0.207
			c0.1191,0.0118,0.2402,0.0215,0.3652,0.0323l8.3984,1.292c0,0,18.0694-4.3116,47.7579-1.9239
			c29.6875,2.3946,36.4062,5.4893,36.4062,5.4893l0.8926-0.0693c7.4385-2.128,16.415-5.5381,25.2969-3.0372
			c3.0088,0.8467,7.9609,0.6963,7.706-2.4013c-0.4512-5.5362-0.5586-13.4229-3.6152-24.0186
			c-0.7363-2.5566-1.8291-5.5234-3.2744-8.7461c6.6718-10.4541,15.9648-30.3232,2.2968-44.9033
			c-15.0595-16.0586-36.4541-7.7861-46.9365-2.1289c-4.7099-2.3008-9.7646-4.2441-15.2011-5.6768
			c-8.7139-2.2988-11.9249-3.996-23.4893-3.8603c-15.0723,0.1758-27.1553,4.5117-36.8389,11.1816
			c0.3155-1.7851,0.375-2.8525,0.375-2.8525S103.4203,0.807,91.846,15.8773c-15.3115,19.9345,2.711,37.7373,2.711,37.7373
			S96.3657,52.5638,99.0863,50.7376z"/>
	</g>
	<path class="st2" d="M100.0853,42.8304c-0.2607-0.0762-0.4033-0.1367-0.4033-0.1367s-5.6094-6.0469,0.9023-15.9248
		c5.6436-8.5576,12.6817-5.9649,13.9014-5.4297L100.0853,42.8304z"/>
	<path class="st2" d="M215.9134,95.5111c0,0,12.1446-9.8438,25.8731-6.833c15.0146,3.2939,30.5547,17.1103,19.5381,45.3154
		c-10.0703,25.7812-52.336,29.5215-52.336,29.5215l-2.1631-0.0977c-14.413,10.5547-37.4443,23.5508-61.5478,21.5615
		c-26.002-2.1455-38.8106-21.4345-42.2236-27.5088l-0.0957-0.1738c-3.4971-1.0615-16.2979-6.1191-23.7803-24.8808
		c-8.7256-21.8809,7.4726-38.8233,7.4726-38.8233l5.1612,0.2705l21.2783,1.6123l34.8887-3.3496l34.0576-0.2226l26.9726,1.2441
		L215.9134,95.5111z"/>
	<path class="st0" d="M190.8764,91.3968c-0.333-0.0254-0.6719-0.0537-1.0107-0.0811c-18.1309-1.4023-31.0645-1.1025-39.4551-0.4599
		l-0.0068,0.043c0,0,2.3857-42.0079,23.6933-39.5762c18.0186,2.0605,16.7774,40.1084,16.7774,40.1084L190.8764,91.3968z"/>
	<path class="st0" d="M127.9593,91.5072c-0.2402-0.0206-0.4873-0.0401-0.7304-0.0616c-13.0479-1.08-22.377-0.5908-28.4366,0.1748
		l-0.0058,0.0362c0,0,2.3584-41.0069,17.6855-38.9659c12.9619,1.7227,11.4815,38.8526,11.4815,38.8526L127.9593,91.5072z"/>
	<path class="st2" d="M234.0825,48.0491c-4.1387-10.5498-11.1153-16.8652-16.6895-21.082l1.4414-1.1348
		c0,0,13.5547-9.3789,21.9063-1.6093c8.8408,8.2256-4.0752,20.6787-4.0752,20.6787L234.0825,48.0491z"/>
	<path class="st3" d="M201.6069,12.1663c24.4961,10.8535,37.6894,30.7471,44.792,48.6651"/>
	<g>
		<path class="st0" d="M116.4779,124.1693c-1.1533,0.58-3.2686,2.1211-4.9903,3.4882c0.2852,3.711,1.1036,12.1397,3.1026,19.918
			c1.3437,5.2246,3.7002,9.9297,4.7461,11.9873l16.0049,0.2393c1.5722-3.126,5.2216-13.0596,6.6631-30.4815
			C136.5794,127.4818,124.1284,123.6263,116.4779,124.1693z"/>
	</g>
	<g>
		<polygon class="st4" points="172.1249,235.5809 186.251,235.5809 186.2973,264.4709 172.5769,264.3383 		"/>
		<g>
			<polygon class="st4" points="125.3931,217.1224 123.9106,251.4981 123.3464,264.6275 137.7555,265.1347 136.4118,217.3582 			"/>
			<polygon class="st4" points="140.475,217.2212 141.696,256.3358 152.8714,256.1987 152.058,218.0355 			"/>
			<polygon class="st4" points="155.9253,217.3582 156.8722,266.8647 167.5776,265.6447 167.1718,217.2212 			"/>
			<polygon class="st4" points="171.8828,230.2225 186.6301,230.0197 186.6301,217.086 171.7458,217.5647 			"/>
			<polygon class="st4" points="215.7226,215.3275 189.8429,216.0021 191.1954,227.3874 217.2177,226.7084 			"/>
			<polygon class="st4" points="192.2811,231.2869 193.2155,266.8246 204.3854,266.4171 204.2644,230.7467 			"/>
		</g>
	</g>
	<g>
		<path d="M117.4633,40.3577c5.0752-0.8886,7.2764,1.002,8.6387,3.2305c1.1611,1.9033,1.3408,3.919,1.3418,3.9297l3.4102-0.2022
			c-0.0215-0.2968-0.2559-2.9785-1.8848-5.7431c-2.3477-3.9795-6.4805-6.1553-11.6367-6.1358
			c-8.5537,0.0401-12.1445,7.3809-12.8477,11.2598l5.7256,0.8301C110.223,47.4545,111.7143,41.3646,117.4633,40.3577z"/>
		<path d="M170.8363,37.3032c11.9551,0.2753,18.5381,10.0292,18.6309,10.3632l4.2637,0.2227
			c-1.1348-4.2881-9.1025-15.1826-22.8818-15.5049c-13.583-0.3076-19.0137,8.3008-19.9883,12.8936l6.2939,0.9248
			C157.2338,45.8295,159.2328,37.0413,170.8363,37.3032z"/>
		<path d="M225.8539,24.5698c5.6816-2.2579,9.7197-2.0831,11.999,0.5146c8.0352,9.1436-5.1445,22.7266-5.2764,22.8604l3.8555,3.8144
			c5.8779-5.9375,14.5918-19.9023,5.4961-30.2539c-9.0566-10.3174-27.3135,2.9668-28.0859,3.5371l3.2217,4.3633
			C217.1049,29.3764,221.0668,26.4691,225.8539,24.5698z"/>
		<path d="M123.8451,155.4652c-1.4951-14.3057-2.2217-27.8877-2.2305-27.9971l-2.2324,0.2334
			c0.0088,0.1103,1.124,13.4189,2.6318,27.8291L123.8451,155.4652z"/>
		<path d="M372.8557,227.6351c-14.4746-13.3262-37.5615-11.5059-49.583-7.0254c-5.8398,1.9697-11.7812,4.792-16.9365,7.5498
			c-1.5078-4.3887-5.4111-13.583-14.3975-24.7441c-0.1104-0.1396-0.2725-0.3154-0.4834-0.5245l1.2842-2.6084l-1.7354-1.3574
			c-0.0771-0.0615-7.8877-6.1758-11.4775-9.3935c-13.1499-11.7768-31.4106-21.7232-47.9678-28.5262
			c0.217-0.0748,0.4351-0.1494,0.6494-0.2248c16.1807-5.6895,28.6543-15.7852,33.0439-27.0254
			c5.0781-13,3.6182-22.9961-1.1846-31.9688c-1.5-2.8076-3.501-5.3339-5.8936-7.5244c-1.0625-7.0605-3.8867-19.8447-8.0918-31.3593
			c4.2441-5.7207,10.6562-16.4034,10.7998-28.6006c0.0977-8.4854-3.3838-16.1699-10.3535-22.8428
			c-9.666-9.2539-22.6182-11.6982-37.457-7.0693c-4.8535,1.5136-8.96,3.165-12.0596,4.5537
			c-11.5605-5.0508-22.8398-9.0928-39.9492-8.9395c-12.998,0.1182-24.6562,3.374-34.7676,9.6016
			c-2.2305-0.7735-7.2881-2.3164-13.2227-2.7481c-10.7891-0.7822-19.2686,2.5245-24.4629,9.5733
			c-14.8037,20.0859,0.5186,37.7822,3.3564,40.7656c-5.4902,16.2734-6.9229,30.624-7.2393,34.791
			c-1.624,1.7559-16.79,18.9893-7.8701,41.3545c7.3164,18.3447,19.4883,24.3076,24.3877,26.0234
			c1.7915,3.1031,5.3303,8.437,10.9495,13.6442c-8.7412,7.8889-17.697,17.9275-22.1926,24.8919
			c-0.1602,0.2471-0.7764,1.2891-0.7764,1.2891l-1.4424,2.4384l2.5029,1.333l0.0107,0.0069
			c-0.2109,0.3456-0.4229,0.6894-0.6348,1.0312c-0.8027,1.2968-1.625,2.6279-2.3555,4.0908
			c-2.8643-2.9482-6.4092-5.7344-10.5518-7.3398c-3.0322-1.1758-5.4482-1.9863-7.3447-2.5547
			c5.707-9.8848,4.4355-18.2344,3.6113-21.3769c2.0508-3.709,7.7676-15.1397,4.4463-21.9043
			c-0.9346-1.9053-2.9893-4.2911-7.4619-4.8389c-4.1328-0.5078-7.5957,0.499-10.292,2.9863
			c-0.1094,0.1006-0.2041,0.2119-0.3096,0.3164c-0.5459-1.8135-1.248-3.9277-2.0996-6.0488
			c-3.3809-8.4248-7.2217-12.3555-11.7539-11.9854c-2.2607,0.1807-4.1953,1.2276-5.5928,3.0245
			c-3.4014,4.375-2.4922,11.5986-2.1318,13.7109c0.2793,1.6269,0.5859,3.7422,0.8809,5.9394
			c-3.752-4.7802-7.4102-7.749-10.8945-8.8369c-2.5645-0.7998-5.1035-0.584-7.3477,0.6211c-3.2793,1.7647-4.375,4.291-4.7158,6.0996
			c-0.9854,5.2295,2.9961,10.7803,4.2988,12.4258l2.1475,6.3399c-6.7188-3.5733-15.6631-6.9766-19.5479-2.4766
			c-2.0459,2.3691-2.9326,5.0938-2.5654,7.8799c0.7227,5.4863,5.959,9.3955,6.9785,10.1094l10.667,8.7773
			c0.8193,4.2393,4.791,19.1162,20.5898,23.9005c0.7041,1.6728,1.7158,3.8906,3.1738,6.8271
			c6.2432,12.5694,14.7607,21.7832,24.6299,26.6465c5.2227,2.5723,14.1543,6.1094,23.7715,6.1094
			c2.1445,0,4.3242-0.1797,6.5039-0.582c-1.6865,15.999-1.7168,33.3242,1.7461,49.9443c1.126,5.4005,2.21,13.5098,2.2207,13.5908
			l0.2051,1.5498l4.9395,2.128l0.002,0.0107c0.5322,0.2022,1.1133,0.4102,1.7197,0.6212l-0.0146,0.0038l1.6016,2.7705
			c3.1836,10.2891,8.6445,18.7803,16.21,25.3535c0.8125,5.2969,3.0176,17.875,7.5313,32.7989
			c5.9268,19.5947,9.2217,30.6328,16.0869,40.2949c-10.7549-3.9258-26.1807-7.4073-41.6045-3.4561
			c-20.0957,5.1436-31.877,13.4766-35.0146,24.7686c-3.9912,14.3594,7.4736,28.2734,10.5898,31.7168
			c2.4482,4.2822,7.1553,8.3769,16.6719,10.3203c4.4287,0.9053,8.7422,1.1152,11.7939,1.1152c1.5527,0,2.7744-0.0547,3.5254-0.0996
			c3.2275,2.2022,7.002,3.3242,11.2549,3.3242c3.877-0.0009,8.1475-0.9209,12.7422-2.7695
			c7.1357-2.873,12.8809-7.0977,14.4658-8.3184c2.7715-0.3466,8.4873-1.1386,16.7822-2.6113
			c14.5635-2.5859,24.6104-6.0488,29.9531-10.3047l35.5586,16.9844c1.9961,1.7158,13.5742,11.5204,22.7324,16.2383
			c6.0322,3.1064,12.1846,4.6992,17.7988,4.6992c3.1191,0,6.0742-0.4922,8.748-1.4893c5.2881-1.9707,9.2119-5.8252,11.3477-11.1474
			c0.1514-0.376,0.2646-0.749,0.3955-1.1231c7.7178-2.0263,13.1973-5.4843,16.1592-10.0683l0.0576,0.041
			c0.1787-0.2481,17.5673-25.0615-4.1064-42.2969c-16.0107-12.7305-45.6445-8.4756-59.2041-5.626
			c12.7236-20.4443,17.3838-40.5429,20.2939-60.8164c18.083-8.9961,45.4717-24.5459,65.7245-40.123
			c10.0244-7.711,21.877-21.0215,30.9307-34.7383c7.9082-11.9834,17.499-29.9434,18.2734-47.4453
			C385.0598,245.3753,381.137,235.2591,372.8557,227.6351z M305.972,244.14c0.6914-0.0264,1.4111-0.0528,2.1787-0.0782
			c-0.1689,2.9805-0.4043,6.627-0.7295,10.8155c-1.3535,0.0674-2.7266,0.1572-4.0918,0.2373
			C304.5521,251.1546,305.3958,247.4222,305.972,244.14z M347.97,259.8607c-0.4023,3.665-0.8691,7.5078-1.4141,11.499
			c-4.5-0.1611-8.4551-0.1885-14.9395-0.1914c0.4004-4.1943,0.6895-8.0244,0.915-11.5918
			C337.9447,259.5814,343.1156,259.6829,347.97,259.8607z M332.8353,254.3431c0.2012-3.7188,0.3643-7.2109,0.5674-10.6475
			c5.3486-0.0127,10.8262,0.0098,16.0479,0.0713c-0.2471,3.3389-0.5547,6.9893-0.9375,10.8926
			C343.5833,254.4925,338.3333,254.3753,332.8353,254.3431z M345.7043,277.2904c-0.5273,3.5019-1.1133,7.0918-1.7656,10.748
			c-4.3838-0.0547-9.1621-0.0732-14.3457,0.001c0.2354-1.6778,0.4697-3.3926,0.7041-5.1934
			c0.2549-1.958,0.4795-3.8252,0.6855-5.6387C336.1263,277.1761,341.0764,277.2054,345.7043,277.2904z M342.968,293.2689
			c-0.6035,3.1396-1.2559,6.3164-1.9629,9.5176c-4.4785-0.085-9.0625-0.0723-13.7402,0.0332
			c0.5342-3.0147,1.0576-6.1924,1.5742-9.6036C333.9427,293.1234,338.6458,293.1536,342.968,293.2689z M339.7307,308.3441
			c-0.7979,3.3515-1.6533,6.7187-2.5752,10.0879c-0.4033-0.0694-0.8203-0.1182-1.2666-0.1182c-3.6631,0-7.6211,0.084-11.7725,0.2373
			c0.7139-3.2139,1.3965-6.4619,2.0566-9.8564C330.8519,308.4788,335.3918,308.3568,339.7307,308.3441z M327.3548,254.3372
			c-4.9834,0.0254-10.1426,0.1328-15.414,0.3379c0.2842-4.1328,0.5469-7.7519,0.834-10.7412
			c4.4628-0.1035,9.6894-0.1767,15.2226-0.2139C327.8322,246.9525,327.6223,250.513,327.3548,254.3372z M326.9593,259.6068
			c-0.2939,3.6816-0.6396,7.5527-1.0498,11.5625c-1.6162,0-3.3604,0.0009-5.2725,0c-3.6387-0.001-6.9267,0.082-9.9033,0.2324
			c0.3223-4.0195,0.5938-7.8252,0.8379-11.3545C316.8372,259.805,321.9836,259.6644,326.9593,259.6068z M325.2493,277.2669
			c-0.4082,3.5596-0.8682,7.2022-1.3818,10.8936c-4.6475,0.1269-9.5742,0.3359-14.7919,0.666
			c0.4297-3.8311,0.8037-7.5703,1.127-11.1719C315.2728,277.4671,320.3226,277.3392,325.2493,277.2669z M323.1086,293.3675
			c-0.4863,3.1914-1.0146,6.4063-1.5898,9.625c-4.7109,0.1807-9.5175,0.459-14.4101,0.8291
			c0.4941-3.2588,0.9385-6.4863,1.335-9.6601C313.6146,293.7835,318.5023,293.5267,323.1086,293.3675z M294.265,290.0452
			c-0.083-1.8837-0.5566-3.9414-1.9658-5.499c-0.4961-0.5478-1.8545-1.6953-4.4834-1.792c1.2461-1.334,2.4082-2.7041,3.5-4.0996
			c4.5459-0.3174,9.1875-0.581,13.8467-0.791c-0.4346,3.6494-0.9248,7.4434-1.4736,11.3428
			C300.641,289.4388,297.4886,289.724,294.265,290.0452z M296.4135,300.5306c-1.0625,0.4258-2.0879,0.9814-3.043,1.5869
			c-0.627-2.0908-1.3477-3.9346-2.1348-5.5498c2.1455-0.6953,4.0117-0.9238,4.4639-0.5497
			C296.473,296.8831,296.5853,298.7991,296.4135,300.5306z M288.8177,291.6439c-0.168,0.0615-0.3359,0.122-0.4961,0.1845
			c-1.0098-1.3037-2.0449-2.3681-3.0605-3.2285c1.3779-0.3945,2.5918-0.5693,3.0586-0.3662
			C288.8461,288.8802,288.9388,290.2943,288.8177,291.6439z M295.1185,273.2288c2.6221-4.165,4.6787-8.4345,6.2881-12.5849
			c1.8643-0.1299,3.7256-0.2559,5.5684-0.3594c-0.3096,3.5488-0.6787,7.3838-1.1172,11.4463
			C301.5179,272.0999,297.9955,272.6253,295.1185,273.2288z M302.8978,294.6068c-0.2666,1.7529-0.5527,3.5312-0.8447,5.3164
			c-0.0518-0.0137-0.1035-0.0362-0.1553-0.0479c0.0625-1.6015-0.0898-3.4365-0.7412-5.1084
			C301.7348,294.7152,302.3256,294.6566,302.8978,294.6068z M302.6595,327.0599c4.7441-0.627,9.4355-1.2051,14.002-1.6992
			c-1.0312,3.9414-2.1523,7.8076-3.3691,11.5595c-0.2148,0.0079-0.4297,0.0157-0.6465,0.0215
			c-3.7109,0.0977-8.0615,0.2305-12.6924,0.4248C300.9408,333.9632,301.8372,330.5198,302.6595,327.0599z M304.2914,319.6986
			c0.6182-2.9961,1.1748-5.9893,1.6914-8.9707c0.085-0.2198,0.1592-0.4366,0.2314-0.6534c4.7812-0.4267,9.5283-0.791,14.1747-1.0713
			c-0.6504,3.2862-1.3525,6.5625-2.1094,9.8057C313.7533,319.0365,309.0629,319.3343,304.2914,319.6986z M283.4213,199.8314
			c0.4463,0.3574,0.8721,0.6982,1.2734,1.0186c-1.5166,3.4541-10.1406,21.5068-28.7724,32.4346
			c-0.7471-0.6934-1.4678-1.3809-2.1719-2.0635C262.0629,225.3743,275.0922,214.5901,283.4213,199.8314z M89.4545,43.4486
			c-3.2598-8.1993-2.0752-16.2061,3.5225-23.7997c7.0342-9.5421,20.3828-7.8663,27.5918-6.0694
			c-2.2432,1.7441-4.3955,3.6543-6.46,5.7256c-3.9629-1.251-11.0498-1.0117-16.2178,7.1738
			c-5.9219,9.3682-2.667,15.8828-0.9863,18.2578c-0.3721,0.8038-0.7402,1.6143-1.0977,2.4395
			c-0.6094,1.4033-1.1846,2.8047-1.7295,4.1992C92.6664,49.5922,90.8139,46.8646,89.4545,43.4486z M109.6488,24.2073
			c-3.5137,4.2168-6.7168,8.9688-9.5918,14.2461c-0.3535-2.1123-0.0576-5.1591,2.4189-9.0781
			C104.8978,25.5405,107.5814,24.4036,109.6488,24.2073z M100.7826,49.3333c12.5264-28.8838,32.8262-43.6552,60.3301-43.9062
			c14.0107-0.1231,23.9473,2.7842,33.5557,6.7187l0.9189,7.21c0.0762-0.0567,9.1973-6.7266,19.2324-9.8291
			c12.9668-4.0078,23.7188-2.0391,31.959,5.8506c5.833,5.5849,8.7549,11.9258,8.6787,18.8398
			c-0.166,15.4395-17.3408,31.5497-17.4883,31.6855l7.8809,1.3134c2.9453,8.6944,4.4707,16.5909,5.252,22.1563
			c-2.6992-1.3828-5.6455-2.4492-8.7793-3.1358c-12.1211-2.6591-22.8652,3.7188-26.5977,6.3096
			c-3.7432-0.8124-10.2324-1.8788-21.0449-2.8203c-0.1895-8.7334-2.1777-39.0342-20.6094-40.79
			c-4.8418-0.459-9.1064,0.838-12.7871,3.8339c-10.665,8.6749-13.0439,30.0274-13.541,36.8672
			c-5.2295,0.5909-9.0371,1.2784-11.2412,1.7334c-1.6992-0.9062-3.5918-1.7011-5.5869-2.3466
			c-0.1943-10.4738-1.9473-36.1281-14.3965-37.4777c-3.4512-0.375-6.5283,0.8936-9.2168,3.7393
			c-8.0098,8.4863-10.0752,29.6611-10.5391,36.414c-1.6592-0.2099-3.8135-0.2754-6.5654,0.0127
			C90.6908,86.0775,92.8383,67.6508,100.7826,49.3333z M178.0248,76.0922c5.626-0.3808,7.6865,9.9326,8.0859,12.3036
			c-4.751-0.2226-9.3164-0.3447-13.6875-0.3652C172.3764,85.3441,172.6332,76.4583,178.0248,76.0922z M164.1557,88.1146
			c-3.3691,0.0908-6.6162,0.2402-9.7021,0.4648c0.8066-8.9385,3.7451-25.2793,11.3213-31.4394
			c2.1455-1.7442,4.4834-2.5235,7.1426-2.3848c0.1748,0.0088,0.3496,0.0215,0.5283,0.0381
			c4.5195,0.4306,7.6201,4.2695,9.7373,8.9697c-2.1152-1.2822-4.7705-1.6172-8.1094-0.4717
			C167.0014,66.057,164.7514,81.5452,164.1557,88.1146z M116.4779,124.1693c7.6504-0.543,20.1016,3.3125,25.5264,5.1513
			c-0.1016,1.2383-0.2188,2.4278-0.3418,3.5899c-0.3867,3.6474-0.8682,6.9209-1.3965,9.8369
			c-0.0215,0.1191-0.043,0.2461-0.0645,0.3652c-0.1094,0.5957-0.2227,1.168-0.3359,1.7334
			c-0.0342,0.1709-0.0684,0.3496-0.1035,0.5176c-0.1064,0.5244-0.2158,1.0264-0.3262,1.5244
			c-0.042,0.1913-0.084,0.3877-0.127,0.5752c-0.1055,0.4658-0.2119,0.915-0.3193,1.3565c-0.0479,0.1971-0.0957,0.3954-0.1436,0.5887
			c-0.1016,0.4141-0.2051,0.8145-0.3086,1.2051c-0.0527,0.1992-0.1055,0.3965-0.1572,0.5898
			c-0.0996,0.3653-0.1992,0.7217-0.2988,1.0664c-0.0566,0.1963-0.1123,0.3907-0.167,0.5791
			c-0.0947,0.3184-0.1875,0.629-0.2812,0.9278c-0.0596,0.1953-0.1191,0.3838-0.1807,0.5713
			c-0.0859,0.2734-0.1738,0.5429-0.2598,0.7998c-0.0625,0.1865-0.124,0.3642-0.1846,0.542
			c-0.0811,0.2304-0.1611,0.4638-0.2383,0.6777c-0.0664,0.1846-0.1318,0.3555-0.1963,0.5283
			c-0.0693,0.1856-0.1406,0.376-0.207,0.5489c-0.0713,0.1806-0.1377,0.3457-0.2061,0.5146
			c-0.0566,0.1387-0.1152,0.2861-0.1689,0.4141c-0.0791,0.1875-0.1533,0.3545-0.2266,0.5205
			c-0.0391,0.0879-0.0801,0.1855-0.1182,0.2666c-0.1094,0.2383-0.2109,0.4541-0.3057,0.6416l-16.0049-0.2393
			c-0.8486-1.6689-2.5596-5.0801-3.8916-9.0976c-0.3096-0.9355-0.6006-1.9024-0.8545-2.8896
			c-0.1328-0.5215-0.2607-1.0459-0.3848-1.5703c-0.04-0.1699-0.0771-0.3389-0.1152-0.5098
			c-0.083-0.3554-0.1621-0.7119-0.2393-1.0693c-0.0439-0.2012-0.0859-0.4023-0.127-0.6045
			c-0.0684-0.3242-0.1357-0.6494-0.2002-0.9727c-0.042-0.2128-0.083-0.4257-0.124-0.6386
			c-0.0576-0.3106-0.1172-0.6211-0.1738-0.9297c-0.0381-0.2139-0.0771-0.4277-0.1143-0.6406
			c-0.0547-0.3057-0.1074-0.6114-0.1582-0.9151c-0.0352-0.208-0.0693-0.416-0.1045-0.6201
			c-0.0479-0.3076-0.0957-0.6113-0.1426-0.9131c-0.0312-0.1963-0.0615-0.3955-0.0908-0.5888
			c-0.0479-0.3116-0.0908-0.6163-0.1348-0.9209c-0.0254-0.1778-0.0527-0.3584-0.0771-0.5323
			c-0.0479-0.3535-0.0938-0.6953-0.1377-1.0371c-0.4092-3.1201-0.6494-5.7734-0.7783-7.4551
			C113.2094,126.2904,115.3246,124.7493,116.4779,124.1693z M108.9389,88.3206c-2,0.4658-3.8525,1.1172-5.4639,2.0137
			c-0.501,0.0498-1.0166,0.0908-1.5049,0.1484c0.7314-8.8554,3.127-24.8974,8.748-30.8486c1.4941-1.582,3.0938-2.3057,4.8896-2.2119
			c0.1162,0.0068,0.2334,0.0156,0.3535,0.0283c2.9189,0.3163,5.0781,3.6123,6.6201,8.3036
			c-1.4609-1.039-3.2832-1.2295-5.5586-0.1328C111.6254,68.2181,109.6312,81.2592,108.9389,88.3206z M122.3822,79.5657
			c1.2529-0.123,2.249,0.669,3.0371,1.8799c0,0.001,0,0.001,0,0.001c1.1914,1.8291,1.9033,4.6201,2.2979,6.6943
			c-1.8838-0.4209-3.8232-0.6904-5.7598-0.7646c-1.1982-0.0459-2.4023-0.0635-3.6016-0.0508
			C118.643,84.098,119.558,79.8422,122.3822,79.5657z M104.3705,154.6038l-0.667,0.3076
			c-2.9365-0.8798-15.0596-5.5068-22.2031-23.4218c-6.4414-16.1533,1.5898-29.3067,5.2939-34.169
			c5.3193-0.6123,9.3281-0.0996,10.8926,0.1739c-0.1328,0.498-0.2451,1.0128-0.3223,1.5576
			c-1.2588,8.9287,12.6387,15.3418,16.4307,16.917c0.0225,1.5722,0.1152,3.2226,0.3945,4.7002
			c-2.7607,1.4902-7.0029,5.3214-7.501,5.7539c0.0234,0.2793,0.2979,3.5234,0.8711,7.7256
			c-8.2959,4.4501-18.5459,2.6484-18.5459,2.6484c0.2803,0.2187,4.7891,3.6357,11.1025,3.9658
			c0.4111,0.0215,0.8291,0.0293,1.2549,0.0225c0.4922,0.4775,5.7002,5.6054,9.8584,9.8506
			c2.6416,7.2597,5.375,12.1211,5.4971,12.3359l0.8477,1.4941l5.1455,0.0772c3.1553,2.7832,7.2246,4.2549,12.5762,4.5351
			c0.8037,0.042,1.6367,0.0616,2.5,0.0459c9.707-0.1845,17.3525-4.8994,28.5977-14.7812
			c5.8262-5.1192,10.5498-11.7041,12.875-15.166c32.8369-2.0303,44.71-14.835,44.71-14.835
			c-22.3447,11.3125-60.1406,11.6113-76.0898,6.5742c0.1191-1.3193,0.2285-2.6748,0.3203-4.0859
			c-0.7002-0.2627-16.5449-5.9502-27.9736-6.6875c-0.2607-1.5-0.4326-3.9111-0.4287-6.2871
			c8.7266-3.3311,23.4629-6.335,23.4629-6.335s1.5195-1.9453,1.3525-7.3779c-0.0449-1.3936-0.8242-2.8838-2.1406-4.3359
			c2.3711-0.3702,5.334-0.7627,8.833-1.0987l0.0078,0.0586c4.9932-0.4775,12.4609-0.9238,22.4414-0.8349
			c2.7949,0.0576,5.7119,0.1679,8.7666,0.3535c28.3623,1.6904,38.9307,5.0703,38.9678,5.0849l-0.8809-4.0175
			c4.208-2.4962,12.1426-6.1006,20.6338-4.2325c8.2373,1.8067,14.9473,6.5537,18.4082,13.0235
			c4.0811,7.6269,3.8574,17.3642-0.6641,28.9394c-7.7568,19.8623-36.7422,25.9551-46.7812,27.4903
			c5.4814-6.2373,7.9365-11.6143,7.9365-11.6143c-0.3604,0.3672-36.4561,36.707-74.667,33.5273
			C116.4643,180.0931,104.4887,154.8587,104.3705,154.6038z M158.8744,193.9212c0.332,0.0205,0.6602,0.0293,0.9863,0.0293
			c7.2197,0,14.1079-5.7766,19.4082-12.2122c5.4485-2.1261,11.2908-4.9481,17.4854-8.644
			c-6.9795,11.6287-20.1855,27.4142-40.2021,26.7488c-8.2036-0.2741-13.5476-5.2865-16.0183-12.9302
			c1.4689,0.2385,2.979,0.4295,4.5388,0.5582c0.5723,0.0469,1.1611,0.086,1.7686,0.1182c0.239,0.0125,0.4851,0.0215,0.7292,0.0313
			C150.3522,191.1523,154.3145,193.6458,158.8744,193.9212z M154.8022,187.4994c4.062-0.2887,8.6111-0.9734,13.6038-2.248
			c-2.8171,2.0986-5.9331,3.4531-9.2034,3.2558C157.486,188.4036,156.029,188.0665,154.8022,187.4994z M97.9799,196.181
			c2.7451,0.7119,8.2646,2.9648,11.918,6.9473c-0.2988,0.8398-0.6211,1.7637-0.9619,2.7637
			c-2.5449-2.1026-5.2695-3.5782-7.4248-4.5303c-1.5781-0.6973-3.9492-1.6279-6-1.9473
			C96.2025,198.4046,97.0346,197.3206,97.9799,196.181z M97.0717,256.1624c-5.2695,1.2998-15.0664,1.9492-28.5527-4.6953
			c-21.3584-10.5224-30.3369-41.706-30.3369-41.706l-1.2676,6.79c-12.0137-5.4736-13.9111-18.7725-13.9912-19.3818l-0.1348-1.0694
			l-12.3691-10.1777l-0.1934-0.1465c-1.2031-0.8262-4.4023-3.5908-4.7676-6.4238c-0.1602-1.2383,0.2637-2.4209,1.2949-3.6143
			c1.4648-1.6972,13.4814,2.5674,21.8105,8.1045l0.5957-5.0098l-4.2988-13.1982l-0.3359-0.3945
			c-1.3398-1.5772-3.9453-5.6875-3.4463-8.3301c0.1143-0.6104,0.4424-1.5156,1.9541-2.3281
			c0.9688-0.5205,1.9736-0.5908,3.1621-0.2207c5.7344,1.7861,14.8057,15.1279,16.8184,19.0478l2.5127-4.3115
			c-0.0537-0.4893-1.3428-12.0498-2.3545-17.9316c-0.6758-3.9706-0.248-7.7745,1.0684-9.4659c0.4629-0.5966,1-0.8886,1.7422-0.9472
			c0.0352-0.0039,0.0703-0.0049,0.1055-0.0049c2.8779,0,7.5771,9.7822,9.6992,18.5703c-1.3604,3.7822-1.5713,7.6582-1.5898,9.3936
			l-2.2109,3.3066c-8.8877,2.4883-12.1465,10.7441-12.625,14.917c0,0,6.5684-8.1035,14.8672-9.8858l1.0742-0.2304l4.3555-6.5254
			l-0.0332-0.8779c-0.0908-2.3926,0.4102-9.2793,3.7754-12.3741c1.4912-1.3711,3.4375-1.8847,5.9463-1.581
			c2.2363,0.2744,2.9268,1.1836,3.252,1.8437c1.7842,3.6299-1.7598,12.5967-4.8447,17.8037l-0.6602,1.1407l0.4609,1.2207
			c0.1377,0.3662,3.1934,8.7998-3.6875,19.4277l-4.333,4.71c13.0879,4.0645,28.1426,5.3975,36.1103,18.1075
			c0,0-1.6396-3.3604-4.6758-7.3496c0.9434-1.7715,2.5-4.209,3.3047-5.5098c0.2754-0.4434,0.54-0.8907,0.8105-1.3379
			c2.7676,0.7422,8.1387,2.9716,11.7402,6.8544C103.4818,223.0941,99.3764,238.64,97.0717,256.1624z M105.5033,322.9779
			c-0.3848-2.7247-1.1934-8.1622-2.0518-12.2793c-10.5752-50.7549,16.8467-119.9991,17.1055-120.6446l-8.1221,6.9532
			c-2.7832-2.5215-5.9072-4.2276-8.3184-5.292c-0.4912-0.2178-1.0059-0.4356-1.5264-0.6446
			c4.4159-4.5748,9.8145-9.4799,14.8801-13.727c4.6448,3.3677,10.3048,6.3596,17.072,8.2482
			c3.2896,10.897,11.0103,19.3115,21.8281,19.6722c0.4727,0.0156,0.9434,0.0234,1.4121,0.0234
			c14.1816,0,27.2617-7.209,37.9043-20.9238c4.1577-5.3561,7.9663-11.6607,10.7244-16.6168
			c3.0247-0.65,7.9141-1.7634,13.1967-3.1652c17.632,6.0159,41.9065,16.0998,56.2997,28.9899
			c0.3584,0.3214,0.7578,0.6699,1.1807,1.0342c-7.9326,14.4892-19.9424,26.5019-27.7558,32.1377
			c-6.9443-7.3633-10.8799-13.1074-10.9824-13.253l-14.6104-9.8691c0.6855,0.9707,19.3105,26.5576,37.3301,41.084
			c-4.7246,8.5342-15.2119,31.5098-9.2471,56.7021c-1.0176,6.3213,0.1416,13.8907,7.251,19.7207
			c0.8271,0.6797,1.666,1.2666,2.5078,1.8057C185.64,342.6458,125.225,329.9886,105.5033,322.9779z M150.0932,482.9691
			c-0.2285,0.1845-23.1934,18.4248-34.9375,5.6836c-3.3066-3.5899-4.749-7.2549-4.29-10.8946
			c0.9365-7.4189,8.9209-13.5468,8.9209-13.5468c-0.4268,0.2744-13.3486,1.6015-14.2979,12.8359
			c-0.3818,4.5264,0.7773,8.8965,3.8535,13.0664c-7.0947-0.1309-18.8408-2.1553-22.5127-13.6671
			c-3.5127-11.0146,4.5586-21.5166,4.5586-21.5166s-10.752,3.0674-11.6348,15.3214c-2.4189-4.8398-4.1123-10.7656-2.502-16.5596
			c2.5801-9.2851,13.0547-16.3388,31.1328-20.9668c20.1934-5.1689,40.7285,3.6944,48.6211,7.7461l13.9648,7.8555
			c-23.709-22.7207-35.375-67.1983-39.334-85.583c8.9062,5.6601,19.9688,9.2734,33.0156,10.6933
			c4.5312,0.4932,8.958,0.6895,13.1338,0.6895c2.9424,0,5.7588-0.0977,8.4014-0.2578c0.2607,11.0683,1.8506,56.7012,10.2002,96.5566
			C187.102,478.0394,160.8568,482.2083,150.0932,482.9691z M233.9994,452.845l5.1631-3.9248l-0.001,0.002
			c0.1074-0.0303,15.4316-4.2285,28.4892-5.3086c11.7979-0.9746,27.8799-0.541,37.4688,7.082
			c8.2012,6.5215,9.5596,14.3496,8.6113,20.9405c-4.2275-12.6612-16.7588-17.8077-17.3809-18.0547
			c0,0,12.6396,11.0371,13.3154,25.6299c0.3818,8.1728-5.501,9.9209-12.0693,11.6279c-0.1289-2.4219-0.707-4.7852-1.7881-7.0674
			c-5.6113-11.8516-22.2305-17.1913-22.9346-17.4131c0,0,13.4531,10.042,18.0371,19.7471c1.7373,3.6748,1.751,7.5254,0.0459,11.7715
			c-1.5742,3.9218-4.3359,6.6425-8.209,8.0859c-5.9707,2.2266-14.2598,1.124-22.168-2.9492
			c-9.2598-4.7705-21.8164-15.6445-21.9424-15.7539l-0.2783-0.2412l-36.6172-17.4912c-8.7139-41.6495-7.7764-89.2227-7.5879-96.3604
			c7.2559-0.8389,11.999-1.9365,12.3926-2.0293c0,0-16.2451,0.3965-37.0918-1.8984c-26.7949-2.9512-48.0449-16.2803-55.1231-37.3692
			c14.0303,3.8037,37.6856,7.8916,67.5967,7.8916c24.7012,0,53.6729-2.8037,84.9717-10.8466
			C267.7776,343.6595,269.2776,407.4886,233.9994,452.845z M262.5131,316.9349c-10.5644-8.6651-2.3652-24.9346-2.0371-25.4795
			l-4.3535,0.4541c-3.9844-26.4375,11.2227-47.2217,11.3887-47.4434l-0.0684-0.0507l0.7705-1.0831
			c-2.5205-1.7939-4.9033-3.6523-7.1475-5.5234c15.1396-9.3506,23.7363-22.6552,27.5459-29.8418
			c9.7695,12.4951,12.7256,22.169,13.1924,23.8848c-0.0664,3.4951-1.335,35.2197-24.3799,53.0664l-6.5498,3.4892
			c0.585,0.0879,13.9033,2.2696,17.8535,17.3467l-1.7451,6.5996c4.3877-4.0293,11.5342-8.6074,14.0723-6.5918
			c-0.3145,1.7745-0.6455,3.5577-0.9854,5.3487c-1.4199,2.084-3.7031,4.5644-6.7148,7.1582
			c-7.3506,6.3291-11.1318,4.0586-11.5625,3.7617l-0.8887-0.876l-1.4248,0.293C279.39,321.4681,270.224,323.263,262.5131,316.9349z
			 M296.5072,327.8919c-0.7764,3.2647-1.5996,6.5225-2.4775,9.7549c-4.3301,0.2285-8.7627,0.5176-13.0488,0.8906
			c0.4775-2.4394,0.9492-5.1884,1.4971-8.6699C287.1136,329.2093,291.8119,328.5394,296.5072,327.8919z M272.4886,350.388
			c0.0811-2.0244,0.1348-3.956,0.165-5.7812c0.4746-0.0596,0.9531-0.1182,1.4365-0.1748
			C273.6302,346.2425,273.1098,348.1556,272.4886,350.388z M275.3295,339.0911c-0.8965,0.0987-1.7793,0.2022-2.6484,0.3106
			c-0.0205-3.2051-0.1064-5.9404-0.208-8.1348c1.4512-0.1992,2.9111-0.4004,4.3838-0.6074
			C276.3119,334.0267,275.8344,336.6771,275.3295,339.0911z M379.0959,257.4613c-1.2373,27.9326-28.6309,63.9238-47.0928,78.124
			c-17.0576,13.1191-40.9814,27.2793-59.582,36.8965c1.665-6.4815,3.1602-13.043,4.1904-16.7071
			c0.0745-0.2648,0.1427-0.5078,0.2147-0.764c2.4503-0.1625,5.2255-0.1948,7.9445-0.2233l0.8046-0.0088c0,0,0-5.3925-2.75-5.3925
			c-1.506,0-3.0068,0.0286-4.4591,0.0923c0.5583-2.0447,1.0323-3.8524,1.4591-5.6294c4.124-0.3594,8.4316-0.625,12.6855-0.8252
			c-0.9209,3.1425-1.8926,6.2519-2.9209,9.3095c0,0,5.8994-1.0781,8.2285-8.0791c0.1621-0.4873,0.3135-0.9804,0.4717-1.4697
			c4.7295-0.1719,9.2275-0.2832,13.124-0.3848c-0.4072,1.126-0.8232,2.2403-1.251,3.3379c0,0,2.8428-0.5488,5.7041-3.456
			c1.954-0.0537,3.8408-0.1104,5.6425-0.1778c0,0-0.5908-2.4658-2.6572-4.0097c0.7461-1.4493,1.4043-3.1631,1.8965-5.1983
			c0.6787-2.8056,1.3252-5.4951,1.9473-8.1465c4.5059-0.414,8.8369-0.7168,12.9062-0.8632
			c-0.6348,2.1523-1.2891,4.3017-1.9795,6.4433c0,0,2.8604-1.2168,6.1035-6.54c1.3008-0.0108,2.5684-0.0029,3.7998,0.0254
			c0,0-0.667-1.6182-2.1318-3.0987c1.4922-3.0742,2.9746-7.0927,4.2236-12.3173c2.5293,0.0566,4.9775,0.1533,7.3125,0.3027
			c0,0-0.0156-4.7178-6.1338-5.6533c0.7021-3.3535,1.3057-6.5284,1.8389-9.5752c4.3506,0.2031,8.2412,0.4873,11.6387,0.8105
			c0,0-0.7656-5.9687-9.4189-6.1338c-0.4326-0.0078-0.8857-0.0156-1.3291-0.0244c0.582-3.6787,1.085-7.2138,1.5654-10.706
			c5.2021,0.1543,9.8682,0.3847,13.7686,0.6816c-0.5898,3.4092-1.2285,6.8164-1.918,10.2139c0,0,5.3584-5.5694,7.1133-9.7266
			c1.04,0.1211,1.9844,0.249,2.8184,0.3839c0,0-0.0068-1.4669-2.1426-3.0938c0.7773-4.7441,1.457-9.4902,2.041-14.2236
			c0.6328,0.0752,1.2539,0.1504,1.8506,0.2276c0,0-0.3975-1.21-1.5615-2.5879c0.0088-0.0703,0.0176-0.1416,0.0264-0.2129
			c0.4434-3.8155-4.2705-11.8555-4.2705-11.8555c-0.2412,2.916-0.5293,5.8447-0.8496,8.7793
			c-1.0098-0.3145-2.1484-0.5439-3.4629-0.6172c-3.1855-0.1787-6.6309-0.3545-10.2871-0.5107
			c0.5049-4.377,0.749-8.0186,0.7939-11.0274c5.25,0.0948,10.0586,0.2354,13.9551,0.4287c0,0-2.2656-4.7783-10.6025-5.1054
			c-1.1621-0.0459-2.3145-0.0899-3.4639-0.1328c-0.7432-10.5821-4.6348-9.7207-4.6348-9.7207
			c-0.0977,2.581-0.249,5.7968-0.4814,9.5312c-5.7217-0.207-11.1875-0.3877-16.2051-0.541c-0.4238-7.96-5.0625-8.5498-5.0625-8.5498
			c-0.0479,2.167-0.1289,5.0068-0.2656,8.3916c-6.3125-0.1817-11.6523-0.3145-15.541-0.3975
			c-1.1504-2.5215-4.1621-2.5273-4.1621-2.5273c-0.001,0.0635-0.0234,0.9179-0.084,2.4463
			c-0.6455-0.0108-1.1758-0.0176-1.5928-0.0215c0.1514-1.4932,0.2412-2.7617,0.292-3.752
			c5.3438-2.9472,11.7294-6.0908,17.8828-8.165l0.084-0.0293c4.5244-1.6914,12.3545-3.3438,20.7637-2.9082
			c6.623,0.3437,16.04,2.1543,23.2881,8.8281C376.2318,238.1156,379.5667,246.8079,379.0959,257.4613z M351.887,271.596
			c0.4365-3.1894,0.8838-6.3984,1.3896-9.7138c0.0938-0.6133,0.1738-1.1885,0.2588-1.7793
			c5.0713,0.2578,9.7188,0.5947,13.8428,0.9824c-0.5107,4.123-1.0918,8.2558-1.752,12.3887
			c-2.6846-0.8135-6.3564-1.4737-11.4033-1.753C353.4046,271.6761,352.6312,271.6341,351.887,271.596z"/>
	</g>
</g>
<g>
	<ellipse class="st5" cx="568.1848" cy="326.0521" rx="157.9787" ry="87.7659"/>
	<ellipse class="st6" cx="568.1848" cy="310.6931" rx="157.9787" ry="87.7659"/>
	<path class="st4" d="M696.9812,305.7343c0,37.3883-57.6622,67.6851-128.7964,67.6851s-128.7965-30.2968-128.7965-67.6851
		c0-37.3707,57.6622-67.6763,128.7965-67.6763C639.3102,238.058,696.9812,268.3636,696.9812,305.7343z"/>
	<path class="st7" d="M693.102,295.7115c0,86.4845-249.8345,86.4845-249.8345,0v-76.8742H693.102V295.7115z"/>
	<path class="st4" d="M568.0443,257.2963c-78.8489,0-124.7856-36.2649-124.7856-36.2649s-0.1404,8.1096-0.1404,14.7886
		c0,0,0.2809,42.9877,22.5734,42.9877c21.5816,0,20.0106,20.6075,33.6494,22.7401c13.5247,2.1152,15.0255-8.2324,31.8151-8.2324
		c16.7897,0,19.7474,18.4835,36.8881,18.4835c20.0896,0,21.7396-18.4835,38.5204-18.4835c16.7808,0,18.7117,10.7425,29.7175,7.7673
		c13.2263-3.5808,7.1441-22.2662,34.1146-22.2662c22.2925,0,22.8455-40.7936,22.8455-40.7936
		c0-6.6702-0.1492-16.9827-0.1492-16.9827S646.902,257.2963,568.0443,257.2963z"/>
	<path class="st8" d="M696.9812,209.6482c0,37.3795-57.6622,67.6851-128.7964,67.6851s-128.7965-30.3056-128.7965-67.6851
		s57.6622-67.6851,128.7965-67.6851C639.3102,141.9631,696.9812,172.2687,696.9812,209.6482z"/>
	<path class="st9" d="M635.4485,218.8373c-5.3099,0-9.6104-4.3005-9.6104-9.6104v-67.2638c0-5.3098,4.3005-9.6104,9.6104-9.6104
		c5.3098,0,9.6104,4.3005,9.6104,9.6104v67.2638C645.0589,214.5368,640.7584,218.8373,635.4485,218.8373z"/>
	<path class="st10" d="M635.4485,156.3743c-10.1984,0-18.2202-4.6691-21.4588-12.4891c-2.8085-6.7843-4.204-21.5027,18.0623-43.7601
		c1.8782-1.8782,4.9149-1.8782,6.7931,0c22.2662,22.2662,20.8707,36.9758,18.0622,43.7601
		C653.6688,151.7051,645.6469,156.3743,635.4485,156.3743z"/>
	<path class="st9" d="M568.1848,247.6596c-5.3099,0-9.6104-4.3005-9.6104-9.6104v-67.255c0-5.3098,4.3005-9.6104,9.6104-9.6104
		c5.3098,0,9.6104,4.3005,9.6104,9.6104v67.2638C577.7951,243.3591,573.4946,247.6596,568.1848,247.6596z"/>
	<path class="st10" d="M568.1848,185.2054c-10.1984,0-18.2202-4.6691-21.4588-12.4891c-2.8173-6.7843-4.204-21.5026,18.0623-43.7601
		c1.8782-1.8782,4.9149-1.8782,6.7931,0c22.2662,22.2662,20.8707,36.9758,18.0622,43.7601
		C586.405,180.5362,578.3832,185.2054,568.1848,185.2054z"/>
	<path class="st9" d="M500.9209,218.8373c-5.3098,0-9.6104-4.3005-9.6104-9.6104v-67.2638c0-5.3098,4.3005-9.6104,9.6104-9.6104
		s9.6104,4.3005,9.6104,9.6104v67.2638C510.5313,214.5368,506.2308,218.8373,500.9209,218.8373z"/>
	<path class="st10" d="M500.9209,156.3743c-10.1984,0-18.2202-4.6691-21.4588-12.4891c-2.8173-6.7843-4.204-21.5027,18.0622-43.7601
		c1.8782-1.8782,4.9149-1.8782,6.7931,0c22.2662,22.2662,20.8708,36.9758,18.0622,43.7601
		C519.1412,151.7051,511.1194,156.3743,500.9209,156.3743z"/>
</g>
</svg>
