<?xml version="1.0" encoding="UTF-8"?>
<svg id="Layer_1" xmlns="http://www.w3.org/2000/svg" xmlns:xlink="http://www.w3.org/1999/xlink" version="1.1" viewBox="0 0 250 250">
  <!-- Generator: Adobe Illustrator 29.1.0, SVG Export Plug-In . SVG Version: 2.1.0 Build 142)  -->
  <defs>
    <style>
      .st0 {
        mask: url(#mask);
      }

      .st1 {
        filter: url(#luminosity-invert-noclip);
      }

      .st2 {
        fill: #fff;
      }

      .st3 {
        fill: #0080ff;
      }
    </style>
    <filter id="luminosity-invert-noclip" x="0" y="0" width="250" height="250" color-interpolation-filters="sRGB" filterUnits="userSpaceOnUse">
      <feColorMatrix result="cm" values="-1 0 0 0 1 0 -1 0 0 1 0 0 -1 0 1 0 0 0 1 0"/>
      <feFlood flood-color="#fff" result="bg"/>
      <feBlend in="cm" in2="bg"/>
    </filter>
    <mask id="mask" x="0" y="0" width="250" height="250" maskUnits="userSpaceOnUse">
      <g class="st1">
        <g>
          <path class="st2" d="M162.2,83.1c0,20.5-16.7,37.2-37.2,37.2s-37.2-16.7-37.2-37.2,16.7-37.2,37.2-37.2,37.2,16.7,37.2,37.2Z"/>
          <path class="st2" d="M199.4,204.1v-37.2c0-5.6-2.8-11.2-7.4-14.9-10.2-8.4-23.3-14-36.3-17.7-9.3-2.8-19.5-4.7-30.7-4.7s-20.5,1.9-30.7,4.7c-13,3.7-26,10.2-36.3,17.7-4.7,3.7-7.4,9.3-7.4,14.9v37.2h148.8Z"/>
        </g>
      </g>
    </mask>
  </defs>
  <g class="st0">
    <rect class="st3" width="250" height="250" rx="20" ry="20"/>
  </g>
</svg>