<?xml version="1.0" encoding="UTF-8"?>
<svg id="Layer_1" xmlns="http://www.w3.org/2000/svg" xmlns:xlink="http://www.w3.org/1999/xlink" version="1.1" viewBox="0 0 250 250">
  <!-- Generator: Adobe Illustrator 29.1.0, SVG Export Plug-In . SVG Version: 2.1.0 Build 142)  -->
  <defs>
    <style>
      .st0 {
        mask: url(#mask);
      }

      .st1 {
        fill: #80f;
      }

      .st2 {
        filter: url(#luminosity-invert-noclip);
      }

      .st3 {
        fill: #fff;
      }
    </style>
    <filter id="luminosity-invert-noclip" x="0" y="0" width="250" height="250" color-interpolation-filters="sRGB" filterUnits="userSpaceOnUse">
      <feColorMatrix result="cm" values="-1 0 0 0 1 0 -1 0 0 1 0 0 -1 0 1 0 0 0 1 0"/>
      <feFlood flood-color="#fff" result="bg"/>
      <feBlend in="cm" in2="bg"/>
    </filter>
    <mask id="mask" x="0" y="0" width="250" height="250" maskUnits="userSpaceOnUse">
      <g class="st2">
        <g>
          <path class="st3" d="M134.7,138c6.4,0,12.7-.8,18.9-2.6l-.8,13.4h50.1c-1.3-3.9-3.7-7.3-6.9-9.8-8.1-6.6-17.6-10.7-27.6-14.3l-10.6-4.3c-.8-.3-1.3-1.1-1.3-2v-5.3c8.2-6.6,13-16.5,13-27v-3.3c1.9-3.8,3.1-8,3.5-12.2,0-14.6-9.3-26.3-21.8-32.4-1-.5-2.2-.4-3.2.3l-2.2,1.5-2.4-3.3c-.7-1-1.9-1.8-3.1-2-2.3-.4-4.5-.6-6.8-.6-15.2,0-27.8,8.3-33,20.8-3.4,9.4-3.6,19.6-.4,29.1v.5c0,0,0,1.6,0,1.6,0,10.5,4.8,20.4,13,27v5.3c0,.9-.5,1.7-1.3,2l-10.7,4.4c-10,3.6-19.5,7.7-27.5,14.2-5.1,4-8.1,10-8.2,16.4v14.5c-1,0-1.9,0-2.9,0l-17.9-58.5c-.6-1.7-2.4-2.6-4.1-2.1-1.7.5-2.6,2.3-2.1,4l17.7,58.1c-6.6,2.2-10.7,6-7.5,18.6,1.3,4.9,3.2,10.2,7.8,12.2,1.3.6,2.8.9,4.2.9,2.3-.1,4.6-.5,6.8-1.2,2.7-.6,5.2-1.9,7.3-3.7,10.4,3.7,26.8,5.9,44.4,6.8l-3.3-69.5c6.1,1.8,12.5,2.6,18.9,2.5ZM65.4,193.4c-1.7.6-3.6.9-5.4.8-.2-.1-1.5-.9-2.9-6.5-1.9-7.3-1.9-7.3,4.4-9h.6c1.2-.4,2.5-.4,3.7-.2h.5c2.6.7,4.7,2.7,5.5,5.3.9,4.4-2,8.6-6.3,9.5ZM134.7,129.3c-5.8,0-11.6-.8-17.2-2.4,2.7-2,4.2-5.2,4.2-8.6v-.2c8.3,3.4,17.7,3.4,26,0v.2c0,3.4,1.6,6.5,4.2,8.6-5.6,1.7-11.4,2.5-17.2,2.4ZM108.7,86v-7.4c11-13.2,22.7-4.3,42.1-17.8,2.6-1.8,5.3,10.4,9.9,14.6v10.5c0,14.4-11.6,26-26,26s-26-11.6-26-26Z"/>
          <path class="st3" d="M132.5,153.2v59.3h30.3c0,1.9,1.5,3.4,3.4,3.5h11.6c1.9,0,3.5-1.6,3.5-3.5h30.3v-59.3h-79.2ZM169.8,205.5h-30.3v-45.5h30.3v45.5ZM204.7,205.5h-30.3v-45.5h30.3v45.5Z"/>
          <path class="st3" d="M181.4,171.8h16.3v3.5h-16.3v-3.5Z"/>
          <path class="st3" d="M181.4,178.8h16.3v3.5h-16.3v-3.5Z"/>
          <path class="st3" d="M181.4,185.8h11.3v3.5h-11.3v-3.5Z"/>
        </g>
      </g>
    </mask>
  </defs>
  <g class="st0">
    <rect class="st1" width="250" height="250" rx="20" ry="20"/>
  </g>
</svg>